<svg aria-hidden="true" style="position: absolute; width: 0; height: 0; overflow: hidden;" version="1.1" xmlns="http://www.w3.org/2000/svg" xmlns:xlink="http://www.w3.org/1999/xlink">
<defs>
<symbol id="icon-burger_menu" viewBox="0 0 36 32">
<path d="M0 3.31v-3.31h36.414v3.31zM0 17.655v-3.31h36.414v3.31zM0 32v-3.31h36.414v3.31z"></path>
</symbol>
<symbol id="icon-telegram" viewBox="0 0 32 32">
<path d="M16 0c-8.838 0-16 7.162-16 16s7.162 16 16 16 16-7.163 16-16-7.163-16-16-16zM23.863 10.969l-2.625 12.369c-0.181 0.881-0.712 1.087-1.45 0.681l-4-2.956-1.919 1.869c-0.225 0.219-0.4 0.4-0.8 0.4-0.519 0-0.431-0.194-0.606-0.688l-1.363-4.475-3.956-1.231c-0.856-0.262-0.862-0.85 0.194-1.269l15.412-5.95c0.7-0.319 1.381 0.169 1.113 1.25z"></path>
</symbol>
<symbol id="icon-who" viewBox="0 0 32 32">
<path fill="#e64895" style="fill: var(--color1, #e64895)" d="M5.102 0h21.467c2.802 0 5.074 2.3 5.074 5.136v21.728c0 2.837-2.271 5.136-5.074 5.136h-21.467c-2.802 0-5.102-2.299-5.102-5.136v-21.728c0-2.837 2.3-5.136 5.102-5.136z"></path>
<path fill="#fff" style="fill: var(--color2, #fff)" d="M15.825 24.485c-4.629 0-8.397-3.812-8.397-8.498 0-3.485 2.085-6.488 5.059-7.797 0.033-0.020 0.070-0.037 0.11-0.049l0.004-0.001c0.949-0.411 2.054-0.651 3.215-0.651 0.003 0 0.007 0 0.010 0h-0.001c4.631 0 8.398 3.812 8.398 8.498s-3.767 8.498-8.398 8.498zM15.825 8.533c-0.768 0-1.509 0.121-2.205 0.344 0.562 0.726 1.574 2.165 2.879 4.575 2.886-1.094 3.79-2.605 4.039-3.189-1.257-1.076-2.902-1.73-4.7-1.73-0.004 0-0.009 0-0.013 0h0.001zM17.067 14.528c0.274 0.533 0.519 1.058 0.74 1.569 2.518-0.562 4.56-0.15 5.365 0.068 0.002-0.058 0.003-0.126 0.003-0.195 0-1.897-0.704-3.629-1.866-4.95l0.007 0.008c-0.469 0.883-1.61 2.311-4.316 3.369l0.068 0.132zM19.627 22.357c1.8-1.118 3.072-2.94 3.436-5.072l0.006-0.044c-0.485-0.143-2.414-0.627-4.851-0.137 0.885 2.304 1.259 4.231 1.409 5.252zM8.479 15.988c0 1.98 0.769 3.783 2.021 5.116 0.499-0.857 1.904-2.818 4.902-4.192 0.367-0.176 0.822-0.358 1.29-0.512l0.085-0.024c-0.305-0.701-0.568-1.235-0.849-1.758l0.064 0.131c-2.484 0.788-4.629 0.965-6.037 0.965-0.651 0-1.151-0.036-1.469-0.068-0.005 0.113-0.008 0.227-0.008 0.341zM15.825 23.423c0.998 0 1.946-0.199 2.809-0.559-0.103-0.811-0.449-2.93-1.448-5.498-0.441 0.135-0.893 0.304-1.351 0.514-3.053 1.399-4.273 3.45-4.538 3.959 1.229 0.987 2.807 1.584 4.525 1.584 0.001 0 0.002 0 0.003 0h-0zM12.602 9.292c-2.056 1.049-3.541 2.963-3.985 5.249l-0.008 0.047c0.924 0.087 3.592 0.21 6.876-0.794-1.399-2.57-2.441-3.959-2.884-4.503z"></path>
</symbol>
<symbol id="icon-twitter" viewBox="0 0 32 32">
<path fill="#00b4ff" style="fill: var(--color3, #00b4ff)" d="M5.455 0h21.468c2.802 0 5.077 2.3 5.077 5.136v21.728c0 2.837-2.276 5.136-5.077 5.136h-21.468c-2.802 0-5.074-2.299-5.074-5.136v-21.728c0.001-2.837 2.272-5.136 5.074-5.136z"></path>
<path fill="#fff" style="fill: var(--color2, #fff)" d="M15.034 12.76c-1.607-0.323-3.068-1.172-4.119-2.418-0.191-0.228-0.471-0.387-0.765-0.387h-0.079c-0.322 0.059-0.612 0.238-0.778 0.514-0.335 0.546-0.533 1.207-0.533 1.914v0c0 0.416 0.081 0.888 0.235 1.299-0.164 0.181-0.258 0.419-0.258 0.669v0.036c0 0.979 0.388 1.886 1.031 2.567-0.037 0.171-0.028 0.35 0.028 0.522 0.222 0.673 0.626 1.254 1.149 1.724-0.323 0.053-0.698 0.086-1.081 0.090l-0.005 0c-0.196 0-0.386-0.011-0.566-0.033-0.049-0.004-0.049-0.007-0.119-0.007-0 0-0 0-0 0-0.431 0-0.799 0.272-0.94 0.654l-0.002 0.007c-0.155 0.449 0.017 0.939 0.415 1.186 1.477 0.947 3.184 1.403 4.935 1.403 5.689 0 9.111-4.447 9.174-8.791 0.468-0.386 0.874-0.823 1.216-1.308l0.014-0.021c0.127-0.167 0.192-0.375 0.192-0.601 0-0.34-0.159-0.64-0.419-0.821 0.026-0.084 0.041-0.181 0.041-0.282 0-0.551-0.447-0.998-0.998-0.998-0.185 0-0.358 0.050-0.507 0.138l0.005-0.003c-0.331 0.191-0.684 0.341-1.057 0.449-0.652-0.491-1.474-0.787-2.366-0.787h-0c-1.964 0-3.591 1.433-3.841 3.284zM18.876 10.475c0.006-0 0.013-0 0.019-0 0.82 0 1.558 0.347 2.078 0.902l0.002 0.002c0.654-0.149 1.271-0.38 1.825-0.711-0.223 0.666-0.67 1.207-1.25 1.545l-0.013 0.007c0.612-0.072 1.17-0.227 1.689-0.454l-0.038 0.015c-0.386 0.557-0.873 1.020-1.434 1.441 0.005 0.119 0.008 0.24 0.008 0.359 0 3.679-2.891 7.922-8.179 7.922-1.623 0-3.135-0.463-4.406-1.252 0.201 0.025 0.434 0.039 0.67 0.039 0.005 0 0.010 0 0.015-0h-0.001c0.006 0 0.012 0 0.019 0 1.341 0 2.577-0.448 3.566-1.203l-0.014 0.010c-1.259-0.021-2.321-0.826-2.685-1.932 0.164 0.032 0.352 0.051 0.545 0.051 0.268 0 0.527-0.036 0.774-0.102l-0.021 0.005c-1.316-0.256-2.306-1.38-2.306-2.73v-0.036c0.388 0.209 0.831 0.334 1.303 0.348-0.773-0.491-1.279-1.344-1.279-2.314 0-0.001 0-0.002 0-0.002v0c0-0.511 0.142-1.006 0.39-1.399 1.417 1.682 3.536 2.79 5.925 2.908-0.047-0.189-0.075-0.407-0.075-0.631 0-0.001 0-0.003 0-0.004v0c0-1.538 1.287-2.784 2.875-2.784z"></path>
</symbol>
<symbol id="icon-facebook" viewBox="0 0 32 32">
<path fill="#345bb4" style="fill: var(--color4, #345bb4)" d="M5.070 0h21.467c2.802 0 5.074 2.3 5.074 5.136v21.728c0 2.837-2.272 5.136-5.074 5.136h-21.467c-2.803 0-5.070-2.299-5.070-5.136v-21.728c0-2.837 2.268-5.136 5.070-5.136z"></path>
<path fill="#fff" style="fill: var(--color2, #fff)" d="M15.305 7.988c-0.673 0.405-1.475 1.257-1.475 2.891v1.426h-1.030c-0.317 0-0.589 0.114-0.789 0.315-0.201 0.18-0.313 0.475-0.311 0.761l0.004 1.605c0.002 0.59 0.48 1.067 1.097 1.067h1.029l0.001 6.962c0 0.592 0.478 1.071 1.103 1.071h1.565c0.568 0 1.068-0.479 1.068-1.071v-6.962h1.262c0.474 0 0.891-0.313 1.024-0.769l0.377-1.605c0.027-0.090 0.043-0.193 0.043-0.3 0-0.592-0.48-1.073-1.072-1.074h-1.625v-1.057h1.062c0.563 0 1.066-0.476 1.068-1.067l0.007-1.553c0.001-0.020 0.002-0.040 0.002-0.095 0-0.557-0.477-1.036-1.067-1.036h-1.367c-0.037-0.002-0.080-0.003-0.123-0.003-0.002 0-0.005 0-0.007 0h0c-0.384 0-1.134 0.064-1.845 0.494zM17.15 8.533h1.495l-0.007 1.643h-1.386c-0.762 0-0.745 0.653-0.745 0.653v2.548h2.693l-0.372 1.605h-2.33v8.033h-1.564l-0.036-8.033h-2.097v-1.605h2.133v-2.497c0-2.178 1.768-2.346 2.217-2.346z"></path>
</symbol>
<symbol id="icon-telegram" viewBox="0 0 32 32">
<path d="M16 0c-8.838 0-16 7.162-16 16s7.162 16 16 16 16-7.163 16-16-7.163-16-16-16zM23.863 10.969l-2.625 12.369c-0.181 0.881-0.712 1.087-1.45 0.681l-4-2.956-1.919 1.869c-0.225 0.219-0.4 0.4-0.8 0.4-0.519 0-0.431-0.194-0.606-0.688l-1.363-4.475-3.956-1.231c-0.856-0.262-0.862-0.85 0.194-1.269l15.412-5.95c0.7-0.319 1.381 0.169 1.113 1.25z"></path>
</symbol>
</defs>
</svg>
